<svg width="705" height="395" viewBox="0 0 705 395" fill="none" xmlns="http://www.w3.org/2000/svg">
<g id="undraw_programming_2svr (1) 1">
<g clip-path="url(#clip0)">
<g id="Body">
<path id="Vector" opacity="0.1" d="M650.945 312.347C650.16 314.128 649.377 315.887 648.596 317.621C647.378 320.315 646.175 322.957 644.988 325.547C644.46 326.695 643.931 327.821 643.417 328.947C637.595 341.471 632.158 352.547 627.541 361.656C623.351 369.91 617.13 376.826 609.529 381.679C601.929 386.532 593.228 389.144 584.34 389.241L481.669 390.417H480.586L471.784 390.517L464.256 390.602L441.169 390.866H440.235L428.482 391.002H428.123L355.681 391.828L291.018 392.541L283.497 392.627L236.782 393.161H236.728L206.431 393.503H206.106L110.307 394.594L81.6484 394.922C75.5326 394.995 69.4426 394.076 63.5921 392.199C53.4111 388.961 44.2613 382.862 37.1272 374.558C24.8189 360.281 15.8483 343.623 9.82276 325.547C8.95166 322.938 8.13923 320.296 7.38547 317.621C-13.4737 243.385 11.9554 147.609 57.7223 83.5164C59.6406 80.8364 61.5904 78.2228 63.5718 75.6758L63.6192 75.6188C77.6946 57.4288 93.476 42.2323 110.287 31.4266C140.076 12.2458 173.081 6.84293 205.544 22.9446C233.011 36.5729 258.657 42.9807 283.517 44.7199C286.029 44.891 288.541 45.0193 291.039 45.0977C348.065 46.9866 401.509 25.3538 464.269 11.3904C466.768 10.8345 469.273 10.2856 471.798 9.76532C516.569 0.385162 566.236 -4.56151 625.3 5.83792C631.436 6.8933 637.491 8.41792 643.417 10.3997C646.021 11.2835 648.531 12.2339 650.945 13.2508C679.137 25.3253 694.512 47.6352 701.045 75.5903C701.664 78.1848 702.199 80.8245 702.65 83.5093C714.234 150.753 680.308 246.137 650.945 312.347Z" fill="#EF4836"/>
<g id="Group" opacity="0.1">
<path id="Vector_2" opacity="0.1" d="M174.901 68.6827V431.928L146.243 432.256C140.127 432.329 134.037 431.411 128.186 429.534V112.875H128.234C142.309 94.6634 158.091 79.467 174.901 68.6827Z" fill="#EF4836"/>
<path id="Vector_3" opacity="0.1" d="M767.298 120.772H122.337C124.255 118.092 126.205 115.479 128.186 112.932V112.875H765.694C766.312 115.455 766.847 118.088 767.298 120.772Z" fill="#EF4836"/>
<path id="Vector_4" opacity="0.1" d="M536.412 47V427.802L528.884 427.887V48.6251C531.382 48.0692 533.887 47.5203 536.412 47Z" fill="#EF4836"/>
<path id="Vector_5" opacity="0.1" d="M355.653 82.3324V429.869L348.132 429.954V81.9546C350.643 82.1257 353.155 82.2255 355.653 82.3324Z" fill="#EF4836"/>
<path id="Vector_6" opacity="0.1" d="M713.211 354.877C711.992 357.571 710.789 360.214 709.602 362.803H74.4373C73.5662 360.195 72.7538 357.552 72 354.877H713.211Z" fill="#EF4836"/>
</g>
<path id="Vector_7" d="M156.122 189.478H143.259V230.576H156.122V189.478Z" fill="#3F3D56"/>
<path id="Vector_8" d="M502.305 187.339H489.442V230.819H502.305V187.339Z" fill="#3F3D56"/>
<path id="Vector_9" d="M584.341 380.374V389.64L481.487 390.638L480.39 390.659L441.299 391.037L440.364 391.051L428.483 391.158H428.131L355.702 391.864L236.81 393.026H236.708L206.479 393.325L206.154 393.332L71.8324 394.629V383.938L103.416 363.98L166.785 363.424L168.139 363.417L168.586 363.41L169.94 363.388L200.366 363.125L201.726 363.117L202.16 363.11L203.514 363.103L213.27 363.018L213.527 363.011L237.595 362.797H237.792L425.598 361.129L430.195 361.093H430.656L434.163 361.058L459.653 360.837L461.007 360.815L462.259 360.801H462.909L470.837 360.737L472.408 360.715L474.514 360.701L481.115 360.637L491.588 360.544L492.942 360.53L495.298 360.516H495.738L546.319 360.06L584.341 380.374Z" fill="#65617D"/>
<path id="Vector_10" opacity="0.2" d="M584.341 380.374V389.64L481.487 390.638L480.39 390.659L441.299 391.037L440.364 391.051L428.483 391.158H428.131L355.702 391.864L236.81 393.026H236.708L206.479 393.325L206.154 393.332L71.8324 394.629V383.938L103.416 363.98L166.785 363.424L168.139 363.417L168.586 363.41L169.94 363.388L200.366 363.125L201.726 363.117L202.16 363.11L203.514 363.103L213.27 363.018L213.527 363.011L237.595 362.797H237.792L425.598 361.129L430.195 361.093H430.656L434.163 361.058L459.653 360.837L461.007 360.815L462.259 360.801H462.909L470.837 360.737L472.408 360.715L474.514 360.701L481.115 360.637L491.588 360.544L492.942 360.53L495.298 360.516H495.738L546.319 360.06L584.341 380.374Z" fill="black"/>
<path id="Vector_11" d="M200.467 344.742V362.198C200.468 363.025 200.245 363.835 199.826 364.534C199.406 365.233 198.807 365.792 198.098 366.147C197.569 366.416 196.992 366.562 196.405 366.574L172.777 367.102C172.146 367.118 171.52 366.979 170.949 366.696C170.227 366.347 169.615 365.788 169.187 365.084C168.758 364.38 168.531 363.561 168.532 362.725V344.742H200.467Z" fill="#3F3D56"/>
<path id="Vector_12" opacity="0.1" d="M200.467 344.742V362.198C200.468 363.025 200.245 363.835 199.826 364.534C199.406 365.233 198.807 365.792 198.098 366.147C197.569 366.416 196.992 366.562 196.405 366.574L172.777 367.102C172.146 367.118 171.52 366.979 170.949 366.696C170.227 366.347 169.615 365.788 169.187 365.084C168.758 364.38 168.531 363.561 168.532 362.725V344.742H200.467Z" fill="black"/>
<path id="Vector_13" d="M201.821 344.742V362.198C201.822 363.025 201.599 363.835 201.18 364.534C200.76 365.233 200.161 365.792 199.452 366.147C198.923 366.416 198.346 366.562 197.759 366.574L174.131 367.102C173.5 367.118 172.874 366.979 172.303 366.696C171.581 366.347 170.969 365.788 170.541 365.084C170.112 364.38 169.885 363.561 169.886 362.725V344.742H201.821Z" fill="#3F3D56"/>
<path id="Vector_14" d="M492.942 344.742H461.007V367.195H492.942V344.742Z" fill="#3F3D56"/>
<path id="Vector_15" opacity="0.1" d="M492.942 344.742H461.007V367.195H492.942V344.742Z" fill="black"/>
<path id="Vector_16" d="M491.588 344.742H459.653V367.195H491.588V344.742Z" fill="#3F3D56"/>
<path id="Vector_17" opacity="0.1" d="M156.122 189.471V193.555L143.259 193.206V189.471H156.122Z" fill="black"/>
<path id="Vector_18" d="M240.791 74.414L225.334 191.31C225.236 192.056 224.88 192.739 224.335 193.227C223.789 193.714 223.091 193.973 222.376 193.954L98.6155 190.575L96.2662 190.511C95.8572 190.501 95.4548 190.4 95.0853 190.215C94.7158 190.03 94.3874 189.765 94.1217 189.438C93.8559 189.11 93.6587 188.727 93.543 188.314C93.4272 187.901 93.3955 187.467 93.4498 187.04L110.802 64.6703C110.914 63.9123 111.292 63.226 111.861 62.747C112.43 62.268 113.149 62.031 113.876 62.0829L238.083 70.9356C238.483 70.9601 238.875 71.0717 239.233 71.2635C239.59 71.4553 239.906 71.723 240.161 72.0499C240.415 72.3767 240.603 72.7556 240.711 73.1625C240.82 73.5694 240.847 73.9955 240.791 74.414V74.414Z" fill="#65617D"/>
<path id="Vector_19" d="M119.109 70.679L106.022 178.544L219.762 182.343L233.75 78.2773L119.109 70.679Z" fill="#EF4836"/>
<path id="Vector_20" d="M395.342 69.0111H263.992C262 69.0111 260.384 70.7121 260.384 72.8102V188.758C260.384 190.856 262 192.557 263.992 192.557H395.342C397.335 192.557 398.951 190.856 398.951 188.758V72.8102C398.951 70.7121 397.335 69.0111 395.342 69.0111Z" fill="#65617D"/>
<path id="Vector_21" d="M392.851 77.3293H266.924V180.204H392.851V77.3293Z" fill="#EF4836"/>
<path id="Vector_22" opacity="0.1" d="M502.305 187.332V190.034L489.442 190.312V187.332H502.305Z" fill="black"/>
<path id="Vector_23" d="M560.347 185.051C560.365 185.347 560.327 185.643 560.233 185.922C560.14 186.201 559.994 186.458 559.805 186.676C559.615 186.895 559.385 187.07 559.129 187.193C558.873 187.315 558.597 187.382 558.316 187.389L431.577 190.148C431.05 190.159 430.539 189.96 430.146 189.592C429.753 189.223 429.507 188.711 429.457 188.159L418.564 68.9256C418.537 68.6298 418.568 68.3313 418.654 68.0482C418.739 67.7652 418.879 67.5034 419.064 67.2788C419.249 67.0542 419.475 66.8715 419.729 66.7416C419.983 66.6118 420.259 66.5376 420.541 66.5235L546.319 59.9375L547.673 59.8662C548.211 59.8363 548.739 60.0278 549.146 60.4001C549.553 60.7725 549.806 61.2967 549.853 61.862L560.347 185.051Z" fill="#65617D"/>
<path id="Vector_24" d="M425.802 73.5301L540.672 67.5856L550.374 175.928L436.411 178.779L425.802 73.5301Z" fill="#EF4836"/>
<path id="Vector_25" opacity="0.1" d="M560.347 185.051C560.365 185.347 560.327 185.643 560.233 185.922C560.14 186.201 559.994 186.458 559.805 186.676C559.615 186.895 559.385 187.07 559.129 187.193C558.873 187.315 558.597 187.382 558.316 187.389L546.319 59.9375L547.673 59.8662C548.211 59.8363 548.739 60.0278 549.146 60.4001C549.553 60.7725 549.806 61.2967 549.853 61.862L560.347 185.051Z" fill="black"/>
<path id="Vector_26" opacity="0.1" d="M113.896 62.0758L98.6155 190.575L96.2662 190.511C95.8572 190.501 95.4548 190.4 95.0853 190.215C94.7158 190.03 94.3874 189.765 94.1217 189.438C93.8559 189.11 93.6587 188.727 93.543 188.314C93.4272 187.901 93.3955 187.467 93.4498 187.04L110.802 64.6703C110.913 63.9071 111.293 63.2159 111.866 62.7349C112.44 62.2539 113.165 62.0185 113.896 62.0758V62.0758Z" fill="black"/>
<path id="Vector_27" opacity="0.1" d="M156.122 218.402H143.259V230.576H156.122V218.402Z" fill="black"/>
<path id="Vector_28" opacity="0.1" d="M201.821 344.735V348.277L169.886 349.176V344.735H201.821Z" fill="black"/>
<path id="Vector_29" d="M258.184 222.643V342.532C258.175 343.264 257.9 343.965 257.415 344.489C256.93 345.013 256.272 345.321 255.577 345.348L125.825 348.983H125.791C125.085 348.974 124.41 348.674 123.91 348.148C123.41 347.622 123.126 346.911 123.117 346.168V222.643C123.126 221.899 123.41 221.189 123.91 220.663C124.41 220.137 125.085 219.837 125.791 219.828H255.509C256.216 219.837 256.891 220.137 257.391 220.663C257.89 221.189 258.175 221.899 258.184 222.643V222.643Z" fill="#65617D"/>
<path id="Vector_30" opacity="0.1" d="M125.825 219.828V348.983H125.791C125.085 348.974 124.41 348.674 123.91 348.148C123.41 347.622 123.126 346.911 123.117 346.168V222.643C123.126 221.899 123.41 221.189 123.91 220.663C124.41 220.137 125.085 219.837 125.791 219.828H125.825Z" fill="black"/>
<path id="Vector_31" d="M131.749 227.483H251.921V333.152L131.749 336.003V227.483Z" fill="#D4DFEC"/>
<path id="Vector_32" opacity="0.1" d="M502.305 218.402H489.442V230.819H502.305V218.402Z" fill="black"/>
<path id="Vector_33" opacity="0.1" d="M491.588 344.735V349.304L459.653 348.406V344.735H491.588Z" fill="black"/>
<path id="Vector_34" d="M533.733 222.643V346.168C533.724 346.918 533.435 347.634 532.928 348.161C532.421 348.688 531.737 348.983 531.025 348.983V348.983L401.246 345.348C400.551 345.321 399.893 345.013 399.408 344.489C398.923 343.965 398.647 343.264 398.639 342.532V222.643C398.648 221.899 398.933 221.189 399.432 220.663C399.932 220.137 400.607 219.837 401.313 219.828H531.032C531.743 219.83 532.425 220.126 532.93 220.653C533.436 221.18 533.724 221.894 533.733 222.643V222.643Z" fill="#65617D"/>
<path id="Vector_35" opacity="0.1" d="M533.733 222.643V346.168C533.724 346.918 533.435 347.634 532.928 348.161C532.421 348.688 531.737 348.983 531.025 348.983V348.983V219.828C531.737 219.828 532.421 220.123 532.928 220.65C533.435 221.177 533.724 221.893 533.733 222.643Z" fill="black"/>
<path id="Vector_36" d="M525.101 227.483H404.929V333.152L525.101 336.003V227.483Z" fill="#D4DFEC"/>
<path id="Vector_37" d="M395.281 222.643V342.532C395.273 343.264 394.998 343.965 394.513 344.489C394.027 345.013 393.369 345.321 392.675 345.348L262.923 348.983C262.21 348.983 261.527 348.688 261.02 348.161C260.513 347.634 260.224 346.918 260.215 346.168V222.643C260.223 221.899 260.508 221.189 261.008 220.663C261.507 220.137 262.182 219.837 262.889 219.828H392.607C393.314 219.837 393.989 220.137 394.488 220.663C394.988 221.189 395.272 221.899 395.281 222.643V222.643Z" fill="#65617D"/>
<path id="Vector_38" d="M268.847 227.483H389.019V333.152L268.847 336.003V227.483Z" fill="#D4DFEC"/>
<path id="Vector_39" opacity="0.1" d="M584.341 380.374V389.64L481.487 390.638L480.39 390.659L441.299 391.037L440.364 391.051L428.483 391.158H428.131L355.702 391.864L236.81 393.026H236.708L206.479 393.325L206.154 393.332L71.8324 394.629V383.938L208.937 382.99H209.262L237.013 382.79H237.142L428.794 381.457H428.99L429.105 381.45H429.424L432.667 381.429H433.655L484.087 381.072L487.066 381.058L487.729 381.051L584.341 380.374Z" fill="black"/>
<path id="Vector_40" d="M329.887 230.576C349.08 230.576 364.639 214.196 364.639 193.99C364.639 173.783 349.08 157.403 329.887 157.403C310.695 157.403 295.136 173.783 295.136 193.99C295.136 214.196 310.695 230.576 329.887 230.576Z" fill="#FBBEBE"/>
<path id="Vector_41" d="M364.646 268.831C364.646 268.831 297.282 277.385 303.714 268.831C306.043 265.738 306.686 256.571 306.557 246.129C306.516 242.957 306.408 239.672 306.252 236.4C305.508 220.719 303.714 205.394 303.714 205.394C303.714 205.394 362.615 176.17 355.845 199.335C353.136 208.694 354.023 221.838 356.081 234.176C356.684 237.776 357.381 241.304 358.113 244.654C359.897 252.825 362.078 260.895 364.646 268.831V268.831Z" fill="#FBBEBE"/>
<path id="Vector_42" opacity="0.1" d="M364.646 268.831C364.646 268.831 297.282 277.385 303.714 268.831C306.043 265.738 306.686 256.571 306.557 246.129C316.828 241.51 329.894 244.953 329.894 244.953C343.651 242.066 352.473 242.63 358.113 244.654C359.897 252.825 362.078 260.895 364.646 268.831V268.831Z" fill="black"/>
<path id="Vector_43" d="M236.783 393.831V393.232L355.682 391.871L428.124 391.158H428.327L428.252 392.213L428.354 391.158H428.483V391.037L429.41 381.45L429.762 377.822L429.87 376.689L429.965 375.741L434.149 361.05L438.333 346.381L441.854 334.029L447.229 315.155C447.229 315.155 444.183 307.671 442.49 305.532C440.798 303.394 439.105 288.782 439.105 288.782C439.105 288.782 424.657 274.291 418.341 272.623C415.694 271.91 410.467 270.962 404.915 269.772C402.837 269.33 400.704 268.86 398.653 268.347C397.495 268.069 396.358 267.776 395.268 267.484C393.146 266.926 391.056 266.246 389.005 265.446C387.93 265.034 386.907 264.486 385.959 263.813C380.982 259.971 368.512 259.537 368.031 259.537C368.03 259.52 368.03 259.503 368.031 259.487V259.423C368.048 259.124 368.048 258.824 368.031 258.524C368.031 258.239 368.031 257.904 367.97 257.527C367.97 257.413 367.97 257.291 367.923 257.17C367.889 256.914 367.848 256.643 367.787 256.358C367.767 256.23 367.74 256.104 367.706 255.98C367.51 255.121 367.226 254.287 366.86 253.492C366.812 253.378 366.751 253.257 366.697 253.143C366.365 252.485 365.98 251.857 365.546 251.268C365.458 251.147 365.363 251.019 365.262 250.898C364.707 250.209 364.091 249.579 363.42 249.016C363.238 248.866 363.048 248.71 362.852 248.567C362.742 248.473 362.627 248.388 362.506 248.31L361.904 247.897L361.342 247.555C360.848 247.27 360.326 246.992 359.758 246.728C359.582 246.642 359.392 246.564 359.203 246.486C359.013 246.407 358.715 246.286 358.465 246.186H358.424L357.916 245.972C357.53 245.837 357.138 245.716 356.725 245.595L356.095 245.424L355.418 245.26L354.741 245.11C354.064 244.967 353.34 244.839 352.581 244.739L351.809 244.64L351.017 244.554L350.198 244.483L349.034 244.411L347.68 244.362C341.708 244.361 335.753 245.028 329.914 246.35C325.859 245.4 321.704 244.998 317.552 245.153H316.963L316.286 245.196H315.853L314.979 245.281C314.688 245.281 314.39 245.345 314.099 245.388C313.808 245.431 313.503 245.466 313.212 245.516L312.765 245.595C312.325 245.673 311.878 245.759 311.411 245.858C311.262 245.887 311.113 245.923 310.965 245.965C310.376 246.101 309.786 246.265 309.204 246.45C308.913 246.536 308.622 246.635 308.331 246.742C308.182 246.785 308.04 246.842 307.898 246.899L307.464 247.063L307.038 247.241L306.53 247.455C306.273 247.569 306.022 247.69 305.772 247.819C305.63 247.883 305.487 247.954 305.352 248.032C305.217 248.111 305.074 248.175 304.946 248.253C303.415 249.086 302 250.137 300.741 251.375L300.396 251.725L300.058 252.088C299.943 252.209 299.834 252.338 299.726 252.466C299.285 252.974 298.873 253.509 298.494 254.07C298.385 254.219 298.284 254.369 298.182 254.526C297.753 255.193 297.364 255.888 297.018 256.607C296.93 256.778 296.849 256.956 296.767 257.127C296.215 258.332 295.762 259.584 295.413 260.87C295.287 261.345 295.172 261.82 295.068 262.295C295.068 262.295 280.735 268.952 268.847 273.771C265.685 275.054 262.706 276.216 260.215 277.092C259.49 277.349 258.813 277.584 258.184 277.805C256.817 278.325 255.397 278.67 253.952 278.832C253.271 278.843 252.592 278.91 251.921 279.031C246.458 279.965 237.094 284.021 236.072 288.091C235.989 288.416 235.966 288.754 236.004 289.088C236.004 289.088 236.004 289.138 236.004 289.167C236.681 294.156 231.942 293.443 231.942 293.443C231.942 293.443 230.25 306.63 227.88 310.194C226.167 312.76 224.996 318.483 224.847 322.803C224.762 324.149 224.862 325.5 225.145 326.816C225.145 326.851 225.145 326.887 225.145 326.916C225.416 327.871 224.766 330.479 223.662 333.822C222.464 337.493 220.717 342.055 219.038 346.36C216.506 352.861 214.123 358.762 213.974 360.06C213.913 360.637 213.737 361.671 213.493 363.003C212.505 368.435 210.311 378.777 209.228 382.961C208.422 386.083 207.251 390.36 206.445 393.297C206.445 393.382 206.398 393.468 206.378 393.546L236.729 393.232V393.831H236.823H236.783Z" fill="#EF4836"/>
<path id="Vector_44" opacity="0.1" d="M247.859 309.816C247.859 309.816 286.449 330.843 300.328 328.348L247.859 309.816Z" fill="black"/>
<path id="Vector_45" opacity="0.1" d="M326.394 301.263C326.394 301.263 363.969 314.093 376.494 315.875C389.019 317.656 326.394 301.263 326.394 301.263Z" fill="black"/>
<path id="Vector_46" opacity="0.1" d="M368.072 259.979C348.438 263.785 311.472 262.965 295.494 262.388C301.351 240.292 329.908 247.804 329.908 247.804C365.255 240.377 367.963 255.787 368.072 259.979Z" fill="black"/>
<path id="Vector_47" d="M368.072 258.553C348.438 262.359 311.472 261.54 295.494 260.962C301.351 238.866 329.908 246.379 329.908 246.379C365.255 238.952 367.963 254.362 368.072 258.553Z" fill="#EF4836"/>
<path id="Vector_48" d="M472.293 355.968C472.293 355.968 495.42 352.226 495.874 362.918C496.327 373.61 484.08 381.079 484.08 381.079L472.293 355.968Z" fill="#FBBEBE"/>
<path id="Vector_49" opacity="0.1" d="M356.081 234.176C355.087 234.644 354.07 235.058 353.035 235.416C345.737 238.068 338.377 240.741 330.693 241.71C323.009 242.679 314.945 241.824 308.243 237.79C307.539 237.371 306.861 236.907 306.212 236.4C305.467 220.719 303.673 205.394 303.673 205.394C303.673 205.394 362.574 176.17 355.804 199.335C353.109 208.694 354.023 221.838 356.081 234.176Z" fill="black"/>
<path id="Vector_50" d="M320.355 136.803C319.389 137.072 318.376 137.099 317.398 136.883C316.42 136.666 315.504 136.212 314.722 135.556L316.13 137.616C315.3 137.717 314.46 137.626 313.667 137.349C312.874 137.071 312.148 136.615 311.54 136.012C311.412 137.856 311.485 139.71 311.757 141.536C309.427 141.655 307.132 140.897 305.284 139.398C305.248 140.041 305.4 140.68 305.72 141.229C306.039 141.779 306.511 142.212 307.072 142.47C304.731 142.176 302.369 142.788 300.425 144.193C298.482 145.597 297.09 147.698 296.51 150.104L300.044 150.446C297.267 151.07 294.774 152.672 292.976 154.986C291.893 156.412 291.067 158.237 291.541 159.976C292.015 161.715 294.303 162.827 295.549 161.587C293.777 163.813 292.489 166.421 291.775 169.227C291.062 172.034 290.94 174.97 291.419 177.831C291.74 179.05 291.846 180.321 291.73 181.58C291.507 182.756 290.803 183.775 290.451 184.923C289.774 187.004 290.417 189.264 291.019 191.338L294.195 202.329C295.346 206.299 296.49 210.277 297.993 214.118C299.057 216.547 299.962 219.05 300.701 221.61C301.554 225.06 301.588 228.837 303.409 231.852C304.657 233.75 306.326 235.298 308.27 236.364C314.966 240.399 323.056 241.254 330.72 240.284C338.384 239.315 345.737 236.642 353.028 233.991C354.648 233.477 356.203 232.759 357.659 231.852C362.703 228.374 363.827 221.26 364.768 214.995C365.817 208.01 367.219 201.039 369.703 194.467C371.179 190.554 373.088 186.584 372.763 182.393C372.35 176.826 368.166 172.314 367.131 166.84C366.784 165.01 366.8 163.125 367.178 161.302C367.499 160.215 367.679 159.089 367.713 157.952C367.598 155.656 365.81 153.889 364.131 152.413C360.489 149.211 356.729 146.184 352.852 143.332C352.656 141.907 354.497 141.294 355.33 140.168C356.508 138.578 355.289 136.055 353.502 135.314C351.715 134.572 349.711 135.057 347.849 135.549C347.97 134.546 347.781 133.528 347.308 132.647C346.836 131.766 346.107 131.069 345.228 130.66C344.35 130.251 343.369 130.151 342.432 130.376C341.496 130.6 340.653 131.137 340.029 131.907C339.535 130.713 338.745 129.681 337.742 128.919C336.739 128.156 335.56 127.692 334.329 127.573C329.84 127.202 329.752 130.816 326.881 132.805C324.011 134.793 321.641 132.17 319.434 130.26C319.029 131.34 318.9 132.513 319.062 133.662C319.223 134.81 319.669 135.894 320.355 136.803V136.803Z" fill="#3F3D56"/>
<path id="Vector_51" d="M489.442 377.352C489.442 377.352 488.839 378.863 487.729 381.051C486.049 384.417 484.005 387.568 481.636 390.438L481.453 390.645H480.356L441.265 391.023H440.33L440.215 390.88L432.633 381.407L429.776 377.836L429.661 377.687L429.417 377.387L429.281 377.216L429.105 376.995L423.547 370.053L425.578 361.143L429.038 346.132L429.126 345.768L429.803 342.917L430.283 340.779L431.895 333.808L437.419 309.823L447.236 315.169L457.588 334.414L463.146 344.749H466.193C466.768 344.749 468.089 345.918 469.416 347.265C469.889 347.743 470.363 348.249 470.77 348.691C471.975 350.002 472.929 351.129 472.929 351.129C472.929 351.129 477.865 351.243 479.192 355.334C479.26 355.532 479.317 355.734 479.361 355.94C479.801 357.548 480.375 359.113 481.074 360.616C481.947 362.619 483.044 364.892 484.154 367.166C486.219 371.336 488.318 375.306 489.09 376.746L489.185 376.924L489.442 377.352Z" fill="#EF4836"/>
<path id="Vector_52" opacity="0.1" d="M431.285 345.17L431.218 346.189V346.26L431.103 347.9L430.202 361.093L429.112 376.988L428.801 381.464L428.124 391.044V391.165L355.682 391.878L236.803 393.232V393.831H236.708V393.232V393.033L237.013 382.797L237.595 362.797L238.096 345.84L238.144 344.15C238.173 343.131 238.4 342.128 238.81 341.204C239.22 340.28 239.805 339.453 240.528 338.775C241.252 338.096 242.099 337.58 243.018 337.258C243.938 336.936 244.91 336.815 245.875 336.902C249.071 337.187 253.221 337.536 258.184 337.907L260.215 338.063C288.873 340.159 341.837 342.867 395.281 339.489C396.405 339.425 397.536 339.353 398.666 339.268C406.953 338.719 415.233 338.013 423.432 337.13C424.468 337.015 425.516 337.142 426.501 337.5C427.486 337.858 428.385 338.439 429.134 339.202C429.882 339.965 430.463 340.892 430.835 341.916C431.207 342.941 431.36 344.04 431.285 345.134V345.17Z" fill="black"/>
<path id="Vector_53" d="M236.783 393.831V393.232L355.682 391.871L428.124 391.158H428.327V391.037L429.004 381.457L429.295 377.181L430.405 361.065L431.279 348.306V347.992C431.319 347.404 431.294 346.814 431.204 346.232C431.208 346.208 431.208 346.184 431.204 346.16C431.018 344.958 430.553 343.822 429.85 342.853C429.105 341.847 428.128 341.057 427.012 340.558C425.896 340.059 424.678 339.868 423.473 340.002C415.274 340.886 406.994 341.592 398.707 342.14C397.576 342.226 396.446 342.297 395.322 342.361C341.877 345.704 288.914 342.996 260.255 340.936L258.224 340.779C253.262 340.408 249.111 340.066 245.916 339.774C244.158 339.618 242.407 340.153 241.002 341.276C239.597 342.398 238.636 344.029 238.306 345.854C238.238 346.24 238.197 346.631 238.184 347.023L237.724 362.818L237.094 382.826L236.796 393.061V393.261V393.86L236.783 393.831Z" fill="#3F3D56"/>
<path id="Vector_54" opacity="0.1" d="M431.489 350.166L430.656 361.093L429.417 377.38L429.105 381.457L428.428 390.588L428.388 391.044V391.165L428.286 392.22L428.361 391.165H428.164L355.723 391.878L236.803 393.232V393.033L237.135 382.797L237.812 362.797L238.245 349.503C238.267 348.747 238.467 348.009 238.829 347.355C239.191 346.701 239.702 346.154 240.317 345.761C241.084 345.267 241.98 345.042 242.876 345.12C244.298 345.241 246.045 345.384 248.082 345.54C251.393 345.797 255.476 346.096 260.228 346.41C269.03 346.994 280.072 347.622 292.725 348.135C327.931 349.56 375.458 350.038 420.602 345.875C422.633 345.69 424.732 345.483 426.783 345.277C427.595 345.191 428.413 345.355 429.139 345.747C429.345 345.855 429.54 345.984 429.722 346.132C430.311 346.582 430.778 347.186 431.076 347.885C431.145 348.024 431.201 348.17 431.245 348.32C431.448 348.911 431.531 349.54 431.489 350.166V350.166Z" fill="black"/>
<path id="Vector_55" opacity="0.1" d="M201.821 359.924V362.198C201.822 363.025 201.599 363.835 201.18 364.534C200.76 365.233 200.161 365.792 199.452 366.147L172.303 366.696C171.581 366.347 170.969 365.788 170.541 365.084C170.112 364.38 169.885 363.561 169.886 362.725V360.587L201.821 359.924Z" fill="black"/>
<path id="Vector_56" d="M202.16 367.487L166.785 368.2V362.02L202.16 361.307V367.487Z" fill="#3F3D56"/>
<path id="Vector_57" opacity="0.1" d="M202.16 367.487L166.785 368.2V362.02L202.16 361.307V367.487Z" fill="black"/>
<path id="Vector_58" d="M203.514 367.487L168.139 368.2V362.02L203.514 361.307V367.487Z" fill="#3F3D56"/>
<g id="Group_2" opacity="0.1">
<path id="Vector_59" opacity="0.1" d="M320.632 134.466C319.971 133.561 319.532 132.498 319.353 131.372C319.19 132.473 319.287 133.599 319.637 134.651C319.973 134.618 320.306 134.556 320.632 134.466Z" fill="black"/>
<path id="Vector_60" opacity="0.1" d="M312.034 139.198C311.906 138.325 311.823 137.444 311.784 136.561C311.784 137.438 311.784 138.322 311.784 139.205L312.034 139.198Z" fill="black"/>
<path id="Vector_61" opacity="0.1" d="M367.212 162.984C367.249 162.349 367.331 161.717 367.455 161.095C367.776 160.011 367.958 158.887 367.997 157.752C367.982 157.497 367.946 157.244 367.889 156.996C367.774 157.652 367.591 158.308 367.455 158.957C367.185 160.279 367.103 161.636 367.212 162.984Z" fill="black"/>
<path id="Vector_62" opacity="0.1" d="M353.13 140.959L353.868 141.522C354.49 141.048 355.072 140.519 355.608 139.94C355.862 139.569 356.02 139.134 356.065 138.679C356.11 138.223 356.041 137.763 355.865 137.345C355.797 137.508 355.711 137.661 355.608 137.801C354.775 138.927 352.933 139.548 353.13 140.959Z" fill="black"/>
<path id="Vector_63" opacity="0.1" d="M297.498 147.816C297.252 148.336 297.054 148.88 296.909 149.441C297.969 148.819 299.109 148.365 300.295 148.094L297.498 147.816Z" fill="black"/>
<path id="Vector_64" opacity="0.1" d="M306.835 140.061C306.39 139.803 305.964 139.51 305.562 139.184C305.545 139.466 305.565 139.749 305.623 140.025C306.027 140.005 306.432 140.017 306.835 140.061V140.061Z" fill="black"/>
<path id="Vector_65" opacity="0.1" d="M373.027 182.058C372.75 185.515 371.22 188.843 369.981 192.122C367.496 198.694 366.095 205.665 365.045 212.657C364.104 218.923 363.014 226.036 357.937 229.507C356.486 230.42 354.932 231.138 353.312 231.646C346.014 234.304 338.655 236.97 330.971 237.939C323.286 238.909 315.223 238.061 308.52 234.026C306.577 232.959 304.909 231.41 303.659 229.514C301.852 226.499 301.818 222.722 300.951 219.272C300.212 216.71 299.308 214.205 298.243 211.773C296.747 207.939 295.596 203.933 294.452 199.991C293.391 196.327 292.333 192.661 291.277 188.993C290.929 187.889 290.671 186.757 290.505 185.607C290.241 187.432 290.755 189.342 291.277 191.131C292.333 194.805 293.391 198.471 294.452 202.129C295.596 206.1 296.747 210.077 298.243 213.912C299.308 216.343 300.212 218.848 300.951 221.41C301.804 224.86 301.838 228.638 303.659 231.653C304.909 233.549 306.577 235.097 308.52 236.165C315.223 240.199 323.307 241.047 330.971 240.078C338.635 239.108 345.987 236.443 353.312 233.784C354.932 233.276 356.486 232.558 357.937 231.646C362.98 228.174 364.104 221.061 365.045 214.796C366.095 207.803 367.496 200.832 369.981 194.26C371.457 190.354 373.366 186.384 373.041 182.186C373.041 182.143 373.027 182.1 373.027 182.058Z" fill="black"/>
<path id="Vector_66" opacity="0.1" d="M291.994 179.299C291.994 179.299 291.994 179.249 291.994 179.221C292.116 177.964 292.011 176.694 291.683 175.479C291.548 174.697 291.46 173.906 291.419 173.112C291.341 174.62 291.429 176.131 291.683 177.617C291.791 178.173 291.913 178.736 291.994 179.299Z" fill="black"/>
<path id="Vector_67" opacity="0.1" d="M294.059 161.865C294.58 160.944 295.171 160.069 295.826 159.249C294.587 160.496 292.299 159.384 291.818 157.652C291.641 158.353 291.641 159.09 291.818 159.79C291.985 160.314 292.28 160.781 292.674 161.145C293.067 161.509 293.545 161.758 294.059 161.865V161.865Z" fill="black"/>
</g>
<path id="Vector_68" opacity="0.1" d="M463.153 344.742C463.153 344.742 465.299 352.939 463.153 360.067C461.007 367.195 463.153 344.742 463.153 344.742Z" fill="black"/>
</g>
<g id="Lines">
<path id="Vector_69" d="M134.721 244.383L203.514 243.67" stroke="#EF4836" stroke-width="2" stroke-miterlimit="10"/>
<path id="Vector_70" d="M134.721 253.271L203.514 252.566" stroke="#EF4836" stroke-width="2" stroke-miterlimit="10"/>
<path id="Vector_71" d="M134.721 262.167L203.514 261.454" stroke="#EF4836" stroke-width="2" stroke-miterlimit="10"/>
</g>
<g id="Lines_2">
<path id="Vector_72" d="M134.721 244.383L203.514 243.67" stroke="#EF4836" stroke-width="2" stroke-miterlimit="10"/>
<path id="Vector_73" d="M134.721 253.271L203.514 252.566" stroke="#EF4836" stroke-width="2" stroke-miterlimit="10"/>
<path id="Vector_74" d="M134.721 262.167L203.514 261.454" stroke="#EF4836" stroke-width="2" stroke-miterlimit="10"/>
</g>
<g id="Lines_3">
<path id="Vector_75" d="M135.371 106.337L204.136 108.39" stroke="white" stroke-width="2" stroke-miterlimit="10"/>
<path id="Vector_76" d="M135.014 115.218L203.779 117.278" stroke="white" stroke-width="2" stroke-miterlimit="10"/>
<path id="Vector_77" d="M134.656 124.107L203.422 126.159" stroke="white" stroke-width="2" stroke-miterlimit="10"/>
</g>
<g id="Lines_4">
<path id="Vector_78" d="M449.196 110.707L517.965 108.759" stroke="white" stroke-width="2" stroke-miterlimit="10"/>
<path id="Vector_79" d="M449.356 119.594L518.125 117.653" stroke="white" stroke-width="2" stroke-miterlimit="10"/>
<path id="Vector_80" d="M449.516 128.488L518.284 126.539" stroke="white" stroke-width="2" stroke-miterlimit="10"/>
</g>
<g id="Lines_5">
<path id="Vector_81" d="M294.161 97.3291L362.953 96.6163" stroke="white" stroke-width="2" stroke-miterlimit="10"/>
<path id="Vector_82" d="M294.161 106.217L362.953 105.512" stroke="white" stroke-width="2" stroke-miterlimit="10"/>
<path id="Vector_83" d="M294.161 115.113L362.953 114.4" stroke="white" stroke-width="2" stroke-miterlimit="10"/>
</g>
</g>
</g>
<defs>
<clipPath id="clip0">
<rect width="705" height="395" fill="white"/>
</clipPath>
</defs>
</svg>
